<svg width="" height="" xmlns="http://www.w3.org/2000/svg"><path d="M256 247 C 248.62460609218454 293.4033260772292, 248.62460609218454 293.4033260772292, 216 338" style="stroke: black;fill:none"/><path d="M152 536 C 150.32397712793687 498.97566351124107, 150.32397712793687 498.97566351124107, 157 411" style="stroke: black;fill:none"/><path d="M177 448 C 175.78831559163342 411.1926019893989, 175.78831559163342 411.1926019893989, 185 580" style="stroke: black;fill:none"/><path d="M131 347 C 83.8806690819689 305.7663946420825, 83.8806690819689 305.7663946420825, 74 227" style="stroke: black;fill:none"/><path d="M216 338 C 170.14429143288118 367.3233850599077, 170.14429143288118 367.3233850599077, 177 448" style="stroke: black;fill:none"/><path d="M120 105 C 138.49490893298133 72.98391861079568, 185.87688724387783 72.98391861079568, 221 116" style="stroke: black;fill:none"/><path d="M74 227 C 80.64066094567227 167.28586782583284, 80.64066094567227 167.28586782583284, 120 105" style="stroke: black;fill:none"/><path d="M157 411 C 154.6220257872689 362.35135756437387, 154.6220257872689 362.35135756437387, 131 347" style="stroke: black;fill:none"/><path d="M221 116 C 254.50557154636783 168.30680116303517, 254.50557154636783 168.30680116303517, 256 247" style="stroke: black;fill:none"/></svg>