<svg width="500" height="500" xmlns="http://www.w3.org/2000/svg"><path d="M76 587 C 75.75547201216622 512.0636563280059, 75.75547201216622 512.0636563280059, 81 517" style="stroke: black;fill:none"/><path d="M81 517 C 77.40437243036337 498.75436182997754, 77.40437243036337 498.75436182997754, 85 396" style="stroke: black;fill:none"/><path d="M85 396 C 86.56760406535176 379.5541111402332, 86.56760406535176 379.5541111402332, 49 328" style="stroke: black;fill:none"/><path d="M49 328 C 39.673231094289235 283.15020601088986, 39.673231094289235 283.15020601088986, 41 235" style="stroke: black;fill:none"/><path d="M41 235 C 50.83276625253626 151.62983830069163, 50.83276625253626 151.62983830069163, 52 104" style="stroke: black;fill:none"/><path d="M52 104 C 54.04939016760267 100.2296673010166, 54.04939016760267 100.2296673010166, 61 275" style="stroke: black;fill:none"/><path d="M61 275 C 63.686740270287174 279.24785540264486, 63.686740270287174 279.24785540264486, 72 268" style="stroke: black;fill:none"/><path d="M72 268 C 79.71145383868839 134.6162196794694, 79.71145383868839 134.6162196794694, 78 137" style="stroke: black;fill:none"/><path d="M78 137 C 82.04696967158367 118.33659749283495, 82.04696967158367 118.33659749283495, 81 103" style="stroke: black;fill:none"/><path d="M81 103 C 78.19320763948338 128.28114118000127, 78.19320763948338 128.28114118000127, 90 278" style="stroke: black;fill:none"/><path d="M76 587 C 77.44928858095471 578.3316673622553, 77.44928858095471 578.3316673622553, 81 517" style="stroke: black;fill:none"/><path d="M81 517 C 77.22968599701568 517.2754838310508, 77.22968599701568 517.2754838310508, 85 396" style="stroke: black;fill:none"/><path d="M85 396 C 78.26613004779469 369.51945462043597, 78.26613004779469 369.51945462043597, 49 328" style="stroke: black;fill:none"/><path d="M49 328 C 35.74403582102764 300.7458668481524, 35.74403582102764 300.7458668481524, 41 235" style="stroke: black;fill:none"/><path d="M41 235 C 47.75984759037357 106.93685421910055, 47.75984759037357 106.93685421910055, 52 104" style="stroke: black;fill:none"/><path d="M52 104 C 60.11003502500364 282.4930896719725, 60.11003502500364 282.4930896719725, 61 275" style="stroke: black;fill:none"/><path d="M61 275 C 61.58760953888181 279.4861134396045, 61.58760953888181 279.4861134396045, 72 268" style="stroke: black;fill:none"/><path d="M72 268 C 77.7802887941686 107.6391857540599, 77.7802887941686 107.6391857540599, 78 137" style="stroke: black;fill:none"/><path d="M78 137 C 78.60015820235733 139.599172556413, 78.60015820235733 139.599172556413, 81 103" style="stroke: black;fill:none"/><path d="M81 103 C 87.84177101421449 237.24840055067443, 87.84177101421449 237.24840055067443, 90 278" style="stroke: black;fill:none"/></svg>
